<svg aria-hidden="true" style="position: absolute; width: 0; height: 0; overflow: hidden;" version="1.1" xmlns="http://www.w3.org/2000/svg" xmlns:xlink="http://www.w3.org/1999/xlink">
<defs>

<symbol id="icon-gmail" viewBox="0 0 32 32">
<path d="M16 0c8.836 0 16 7.163 16 16 0 8.836-7.164 16-16 16-8.835 0-16-7.164-16-16 0-8.837 7.165-16 16-16zM24.001 22.556c0.736 0 1.332-0.597 1.332-1.332v-10.559c0-0.735-0.597-1.332-1.332-1.332h-16.003c-0.735 0-1.332 0.597-1.332 1.332v10.559c0 0.735 0.597 1.332 1.332 1.332h16.003zM16 17.823l-7.267-5.043-0.015 8.997h14.532v-8.997l-7.251 5.043zM22.899 10.111c-2.036 1.419-6.899 4.845-6.899 4.845l-6.937-4.845h13.836z"></path>
</symbol>

<symbol id="icon-github" viewBox="0 0 32 32">
<path d="M16 0c-8.835 0-16 7.164-16 16 0 7.069 4.584 13.067 10.943 15.183 0.799 0.148 1.057-0.348 1.057-0.769v-2.979c-4.451 0.968-5.377-1.888-5.377-1.888-0.728-1.849-1.777-2.341-1.777-2.341-1.452-0.993 0.111-0.972 0.111-0.972 1.607 0.112 2.452 1.649 2.452 1.649 1.427 2.445 3.743 1.739 4.656 1.329 0.143-1.033 0.557-1.74 1.016-2.139-3.553-0.407-7.289-1.779-7.289-7.908 0-1.748 0.625-3.175 1.648-4.295-0.165-0.404-0.713-2.032 0.156-4.235 0 0 1.344-0.429 4.401 1.64 1.2-0.34 2.579-0.536 4.003-0.539h0.001c1.36 0.007 2.729 0.184 4.008 0.539 3.055-2.069 4.396-1.64 4.396-1.64 0.871 2.204 0.323 3.832 0.157 4.235 1.027 1.12 1.647 2.548 1.647 4.295 0 6.145-3.743 7.499-7.305 7.895 0.573 0.496 1.097 1.469 1.097 2.963v4.391c0 0.425 0.256 0.925 1.068 0.768 6.353-2.119 10.932-8.115 10.932-15.181 0-8.836-7.164-16-16-16z"></path>
</symbol>

<symbol id="icon-linkedin" viewBox="0 0 32 32">
<path d="M16 0c-8.836 0-16 7.164-16 16s7.164 16 16 16 16-7.164 16-16-7.164-16-16-16zM13.333 21.333h-2.667v-8h2.667v8zM12 12.145c-0.809 0-1.467-0.661-1.467-1.479 0-0.816 0.656-1.479 1.467-1.479s1.467 0.663 1.467 1.479c0 0.817-0.657 1.479-1.467 1.479zM22.667 21.333h-2.664v-3.815c0-2.508-2.669-2.296-2.669 0v3.815h-2.667v-8h2.667v1.457c1.163-2.155 5.333-2.315 5.333 2.064v4.479z"></path>
</symbol>

</defs>
</svg>
