<svg aria-hidden="true" style="position: absolute; width: 0; height: 0; overflow: hidden;" version="1.1" xmlns="http://www.w3.org/2000/svg" xmlns:xlink="http://www.w3.org/1999/xlink">
<defs>

<symbol id="icon-gmail" viewBox="0 0 32 32">
<path fill="#FED03D" d="M16 0c8.836 0 16 7.163 16 16 0 8.836-7.164 16-16 16-8.835 0-16-7.164-16-16 0-8.837 7.165-16 16-16zM24.001 22.556c0.736 0 1.332-0.597 1.332-1.332v-10.559c0-0.735-0.597-1.332-1.332-1.332h-16.003c-0.735 0-1.332 0.597-1.332 1.332v10.559c0 0.735 0.597 1.332 1.332 1.332h16.003zM16 17.823l-7.267-5.043-0.015 8.997h14.532v-8.997l-7.251 5.043zM22.899 10.111c-2.036 1.419-6.899 4.845-6.899 4.845l-6.937-4.845h13.836z"></path>
</symbol>

<symbol id="icon-github" viewBox="0 0 32 32">
<path fill="#FED03D" d="M16 0c-8.835 0-16 7.164-16 16 0 7.069 4.584 13.067 10.943 15.183 0.799 0.148 1.057-0.348 1.057-0.769v-2.979c-4.451 0.968-5.377-1.888-5.377-1.888-0.728-1.849-1.777-2.341-1.777-2.341-1.452-0.993 0.111-0.972 0.111-0.972 1.607 0.112 2.452 1.649 2.452 1.649 1.427 2.445 3.743 1.739 4.656 1.329 0.143-1.033 0.557-1.74 1.016-2.139-3.553-0.407-7.289-1.779-7.289-7.908 0-1.748 0.625-3.175 1.648-4.295-0.165-0.404-0.713-2.032 0.156-4.235 0 0 1.344-0.429 4.401 1.64 1.2-0.34 2.579-0.536 4.003-0.539h0.001c1.36 0.007 2.729 0.184 4.008 0.539 3.055-2.069 4.396-1.64 4.396-1.64 0.871 2.204 0.323 3.832 0.157 4.235 1.027 1.12 1.647 2.548 1.647 4.295 0 6.145-3.743 7.499-7.305 7.895 0.573 0.496 1.097 1.469 1.097 2.963v4.391c0 0.425 0.256 0.925 1.068 0.768 6.353-2.119 10.932-8.115 10.932-15.181 0-8.836-7.164-16-16-16z"></path>
</symbol>

<symbol id="icon-github-simple" viewBox="0 0 32 32">
<path stroke-linejoin="round" stroke-linecap="round" stroke-miterlimit="4" stroke-width="0.48" d="M21.185 31.5c0.006-0.978 0.012-4.372 0.012-5.716 0-1.942-0.663-3.213-1.407-3.856 4.619-0.516 9.468-2.275 9.468-10.278 0-2.274-0.801-4.134-2.131-5.589 0.213-0.527 0.924-2.646-0.207-5.513 0 0-1.738-0.56-5.698 2.137-1.657-0.464-3.429-0.693-5.191-0.702-1.762 0.009-3.534 0.239-5.191 0.702-3.96-2.697-5.697-2.137-5.697-2.137-1.131 2.868-0.42 4.986-0.207 5.513-1.33 1.455-2.131 3.315-2.131 5.589 0 8.002 4.849 9.761 9.468 10.278-0.744 0.643-1.407 1.914-1.407 3.856 0 1.344 0.006 4.738 0.012 5.716M1.547 23.122c2.082 0.147 3.282 2.039 3.282 2.039 1.85 3.184 4.855 2.263 6.036 1.731"></path>
</symbol>

<symbol id="icon-linkedin" viewBox="0 0 32 32">
<path fill="#FED03D" d="M16 0c-8.836 0-16 7.164-16 16s7.164 16 16 16 16-7.164 16-16-7.164-16-16-16zM13.333 21.333h-2.667v-8h2.667v8zM12 12.145c-0.809 0-1.467-0.661-1.467-1.479 0-0.816 0.656-1.479 1.467-1.479s1.467 0.663 1.467 1.479c0 0.817-0.657 1.479-1.467 1.479zM22.667 21.333h-2.664v-3.815c0-2.508-2.669-2.296-2.669 0v3.815h-2.667v-8h2.667v1.457c1.163-2.155 5.333-2.315 5.333 2.064v4.479z"></path>
</symbol>

<symbol id="icon-react" viewBox="0 0 32 32">
<path fill="#fed03d" style="fill: var(--color1, #fed03d)" d="M30.285 18.15c0.115-0.23 0.23-0.499 0.307-0.73 0.998-2.995-0.499-6.566-3.725-7.411-0.346-4.378-3.418-7.373-6.874-7.872-3.955-0.576-7.603 1.92-8.832 5.952-1.459-0.499-2.88-0.461-4.224 0.346-0.614 0.269-1.152 0.691-1.651 1.229-0.73 0.806-1.19 1.805-1.421 2.88-0.269 0.038-0.576 0.077-0.845 0.192-1.536 0.538-2.534 1.69-2.803 3.418-0.154 1.075 0.154 2.15 0.346 2.573 0.73 1.728 2.458 2.688 4.224 2.419 0.077 0 0.23 0.038 0.307 0.077 0.077 2.726 1.421 5.146 3.418 6.528 3.187 2.227 7.296 1.536 9.907-1.498 1.114 1.152 2.419 1.69 3.994 1.498 1.536-0.192 2.726-1.037 3.61-2.419 0.422 0.115 0.806 0.269 1.19 0.307 1.536 0.154 2.803-0.461 3.725-1.843l0.115-0.115c0.115-0.307 0.269-0.614 0.384-0.922 0.077-0.461 0.154-0.922 0.154-1.382 0.038-1.344-0.461-2.496-1.306-3.226z"></path>
<path fill="#fdfcef" style="fill: var(--color2, #fdfcef)" d="M12.659 10.010h4.531c1.037 0 1.882-0.845 1.882-1.882 0-0.922-0.653-1.651-1.498-1.843v-0.23c0-1.075-0.883-1.958-1.958-1.958-0.653 0-1.19 0.307-1.536 0.768-0.077-1.19-1.152-2.112-2.419-1.958-0.922 0.115-1.651 0.806-1.843 1.728-0.038 0.307-0.038 0.576 0 0.845-0.23-0.269-0.576-0.422-0.998-0.422-0.73 0-1.306 0.538-1.344 1.267-0.307-0.077-0.691-0.077-1.037 0.077-0.691 0.269-1.19 0.922-1.229 1.69-0.038 1.075 0.806 1.958 1.882 1.958h4.339z"></path>
<path fill="#472b29" style="fill: var(--color3, #472b29)" d="M17.19 10.202h-4.531c-0.115 0-0.192-0.077-0.192-0.192s0.077-0.192 0.192-0.192h4.531c0.922 0 1.69-0.768 1.69-1.69 0-0.806-0.576-1.498-1.344-1.651-0.115-0.038-0.154-0.115-0.154-0.23v-0.23c0-0.96-0.768-1.766-1.766-1.766-0.538 0-1.075 0.269-1.382 0.691-0.038 0.077-0.115 0.077-0.192 0.077-0.077-0.038-0.115-0.077-0.154-0.154-0.038-0.538-0.307-1.037-0.691-1.344-0.422-0.346-0.96-0.499-1.498-0.422-0.845 0.115-1.536 0.73-1.69 1.574-0.038 0.269-0.038 0.499 0 0.768 0 0.077-0.038 0.154-0.115 0.192s-0.154 0.038-0.23-0.038c-0.23-0.23-0.538-0.384-0.845-0.384-0.614 0-1.114 0.461-1.152 1.075 0 0.038-0.038 0.115-0.077 0.154s-0.115 0.038-0.154 0.038c-0.307-0.077-0.614-0.038-0.922 0.077-0.653 0.23-1.075 0.845-1.114 1.498 0 0.461 0.154 0.922 0.461 1.229 0.307 0.346 0.768 0.499 1.229 0.499h4.339c0.115 0 0.192 0.077 0.192 0.192s-0.077 0.192-0.192 0.192h-4.301c-0.576 0-1.114-0.23-1.498-0.653s-0.614-0.96-0.576-1.536c0.038-0.806 0.576-1.574 1.344-1.843 0.307-0.115 0.614-0.154 0.96-0.115 0.154-0.691 0.768-1.229 1.498-1.229 0.269 0 0.538 0.077 0.73 0.192 0-0.154 0-0.307 0.038-0.461 0.192-0.998 0.998-1.766 1.997-1.882 0.653-0.077 1.267 0.115 1.766 0.499 0.384 0.307 0.653 0.768 0.768 1.229 0.384-0.346 0.883-0.538 1.421-0.538 1.19 0 2.15 0.96 2.15 2.15v0.077c0.883 0.269 1.459 1.075 1.459 1.997 0.077 1.229-0.845 2.15-1.997 2.15z"></path>
<path fill="#fdfcef" style="fill: var(--color2, #fdfcef)" d="M11.584 5.901c-0.691-0.038-1.306 0.422-1.344 1.075v0.23c-0.115-0.154-0.346-0.269-0.576-0.269-0.422-0.038-0.768 0.23-0.845 0.614-0.077-0.038-0.154-0.038-0.23-0.038-0.614-0.038-1.114 0.384-1.152 0.922z"></path>
<path fill="#472b29" style="fill: var(--color3, #472b29)" d="M7.475 8.55c-0.077 0-0.115-0.038-0.115-0.115 0.038-0.614 0.614-1.075 1.267-1.037 0.038 0 0.115 0 0.154 0.038 0.115-0.384 0.499-0.614 0.922-0.614 0.154 0 0.307 0.077 0.461 0.154v-0.038c0.038-0.691 0.691-1.229 1.421-1.152 0.038 0 0.077 0.038 0.077 0.115s-0.038 0.115-0.115 0.077c-0.653-0.038-1.19 0.384-1.229 0.998v0.23c0 0.038 0 0.077-0.038 0.115s-0.077 0-0.115-0.038c-0.115-0.154-0.307-0.23-0.499-0.23-0.384 0-0.691 0.23-0.73 0.538 0 0.038 0 0.038-0.038 0.077-0.038 0-0.038 0.038-0.077 0-0.077-0.038-0.154-0.038-0.23-0.038-0.499-0.077-0.998 0.307-1.037 0.806 0 0.077-0.038 0.115-0.077 0.115z"></path>
<path fill="#fdfcef" style="fill: var(--color2, #fdfcef)" d="M17.958 6.515c-0.653-0.307-1.421-0.077-1.69 0.499-0.038 0.077-0.077 0.154-0.077 0.23z"></path>
<path fill="#472b29" style="fill: var(--color3, #472b29)" d="M16.192 7.322c-0.077 0-0.115-0.077-0.077-0.115 0-0.077 0.038-0.154 0.077-0.23 0.307-0.614 1.114-0.845 1.805-0.538 0.038 0.038 0.077 0.077 0.038 0.115s-0.077 0.077-0.115 0.038c-0.614-0.269-1.306-0.077-1.574 0.422-0.038 0.077-0.038 0.115-0.077 0.192 0 0.077-0.038 0.115-0.077 0.115z"></path>
<path fill="#fff" style="fill: var(--color4, #fff)" d="M3.674 18.688h-3.84c-0.115 0-0.192-0.077-0.192-0.192s0.077-0.192 0.192-0.192h3.84c0.115 0 0.192 0.077 0.192 0.192s-0.077 0.192-0.192 0.192zM4.979 18.496c0-0.115-0.077-0.192-0.192-0.192h-0.538c-0.115 0-0.192 0.077-0.192 0.192s0.077 0.192 0.192 0.192h0.538c0.115 0 0.192-0.077 0.192-0.192zM6.515 18.496c0-0.115-0.077-0.192-0.192-0.192h-0.96c-0.115 0-0.192 0.077-0.192 0.192s0.077 0.192 0.192 0.192h0.96c0.115 0 0.192-0.077 0.192-0.192zM6.515 19.264c0-0.115-0.077-0.192-0.192-0.192h-3.686c-0.115 0-0.192 0.077-0.192 0.192s0.077 0.192 0.192 0.192h3.686c0.115 0 0.192-0.077 0.192-0.192zM2.176 19.264c0-0.115-0.077-0.192-0.192-0.192h-0.23c-0.115 0-0.192 0.077-0.192 0.192s0.077 0.192 0.192 0.192h0.23c0.115 0 0.192-0.077 0.192-0.192zM1.254 19.264c0-0.115-0.077-0.192-0.192-0.192h-0.538c-0.115 0-0.192 0.077-0.192 0.192s0.077 0.192 0.192 0.192h0.576c0.077 0 0.154-0.077 0.154-0.192zM4.749 17.728c0-0.115-0.077-0.192-0.192-0.192h-1.92c-0.115 0-0.192 0.077-0.192 0.192s0.077 0.192 0.192 0.192h1.92c0.115 0 0.192-0.077 0.192-0.192zM4.749 16.96c0-0.115-0.077-0.192-0.192-0.192h-0.461c-0.115 0-0.192 0.077-0.192 0.192s0.077 0.192 0.192 0.192h0.499c0.077 0 0.154-0.077 0.154-0.192zM3.52 20.032c0-0.115-0.077-0.192-0.192-0.192h-0.691c-0.115 0-0.192 0.077-0.192 0.192s0.077 0.192 0.192 0.192h0.691c0.115 0 0.192-0.077 0.192-0.192zM24.333 6.4h-3.84c-0.115 0-0.192-0.077-0.192-0.192s0.077-0.192 0.192-0.192h3.84c0.115 0 0.192 0.077 0.192 0.192s-0.077 0.192-0.192 0.192zM25.638 6.208c0-0.115-0.077-0.192-0.192-0.192h-0.538c-0.115 0-0.192 0.077-0.192 0.192s0.077 0.192 0.192 0.192h0.538c0.115 0 0.192-0.077 0.192-0.192zM27.213 6.208c0-0.115-0.077-0.192-0.192-0.192h-0.96c-0.115 0-0.192 0.077-0.192 0.192s0.077 0.192 0.192 0.192h0.96c0.115 0 0.192-0.077 0.192-0.192zM26.445 4.672c0-0.115-0.077-0.192-0.192-0.192h-3.725c-0.115 0-0.192 0.077-0.192 0.192s0.115 0.192 0.192 0.192h3.686c0.115 0 0.23-0.077 0.23-0.192zM22.067 4.672c0-0.115-0.077-0.192-0.192-0.192h-0.23c-0.115 0-0.192 0.077-0.192 0.192s0.077 0.192 0.192 0.192h0.23c0.115 0 0.192-0.077 0.192-0.192zM21.146 4.672c0-0.115-0.077-0.192-0.192-0.192h-0.576c-0.115 0-0.192 0.077-0.192 0.192s0.077 0.192 0.192 0.192h0.576c0.115 0 0.192-0.077 0.192-0.192zM25.446 5.44c0-0.115-0.077-0.192-0.192-0.192h-1.92c-0.115 0-0.192 0.077-0.192 0.192s0.077 0.192 0.192 0.192h1.92c0.115 0 0.192-0.077 0.192-0.192zM25.446 4.672c0-0.115-0.077-0.192-0.192-0.192h-0.499c-0.115 0-0.192 0.077-0.192 0.192s0.077 0.192 0.192 0.192h0.499c0.115 0 0.192-0.077 0.192-0.192zM22.95 5.44c0-0.115-0.077-0.192-0.192-0.192h-0.691c-0.115 0-0.192 0.077-0.192 0.192s0.077 0.192 0.192 0.192h0.691c0.115 0 0.192-0.077 0.192-0.192z"></path>
<path fill="#77cbd2" style="fill: var(--color5, #77cbd2)" d="M16.768 21.030c-5.683 0-9.984-1.997-9.984-4.646s4.301-4.646 9.984-4.646 9.984 1.997 9.984 4.646c0 2.65-4.301 4.646-9.984 4.646zM16.768 13.12c-5.107 0-8.64 1.728-8.64 3.264s3.571 3.264 8.64 3.264 8.64-1.728 8.64-3.264-3.533-3.264-8.64-3.264z"></path>
<path fill="#472b29" style="fill: var(--color3, #472b29)" d="M16.768 21.299c-5.837 0-10.253-2.112-10.253-4.915s4.416-4.915 10.253-4.915 10.253 2.112 10.253 4.915c0 2.803-4.416 4.915-10.253 4.915zM16.768 12.006c-5.453 0-9.715 1.92-9.715 4.378s4.262 4.378 9.715 4.378c5.453 0 9.715-1.92 9.715-4.378s-4.262-4.378-9.715-4.378zM16.768 19.917c-5.338 0-8.909-1.843-8.909-3.533s3.571-3.533 8.909-3.533c5.338 0 8.909 1.843 8.909 3.533s-3.571 3.533-8.909 3.533zM16.768 13.389c-5.184 0-8.371 1.728-8.371 2.995s3.187 2.995 8.371 2.995 8.371-1.728 8.371-2.995-3.187-2.995-8.371-2.995z"></path>
<path fill="#77cbd2" style="fill: var(--color5, #77cbd2)" d="M13.043 25.37c-0.461 0-0.845-0.115-1.229-0.307-2.189-1.306-1.728-5.99 1.114-10.906 1.958-3.456 4.608-6.067 6.72-6.605 0.768-0.192 1.498-0.154 2.074 0.192 2.189 1.267 1.728 5.952-1.114 10.906-1.958 3.456-4.608 6.067-6.72 6.605-0.307 0.077-0.576 0.115-0.845 0.115zM20.493 8.742c-0.154 0-0.346 0.038-0.499 0.077-1.766 0.461-4.147 2.88-5.914 5.99-2.458 4.301-2.88 8.371-1.574 9.101 0.269 0.154 0.614 0.192 1.075 0.077 1.766-0.461 4.147-2.88 5.914-5.99 2.458-4.301 2.88-8.371 1.574-9.101-0.154-0.115-0.346-0.154-0.576-0.154z"></path>
<path fill="#472b29" style="fill: var(--color3, #472b29)" d="M13.043 25.638c-0.499 0-0.96-0.115-1.344-0.346-2.304-1.344-1.882-6.221 0.998-11.29 1.997-3.533 4.723-6.182 6.874-6.758 0.845-0.23 1.651-0.154 2.266 0.23 2.304 1.344 1.882 6.221-0.998 11.29-1.997 3.533-4.723 6.182-6.874 6.758-0.307 0.077-0.614 0.115-0.922 0.115zM20.493 7.667c-0.269 0-0.499 0.038-0.806 0.115-2.035 0.538-4.608 3.11-6.566 6.49-2.688 4.723-3.226 9.37-1.19 10.56 0.499 0.307 1.152 0.346 1.882 0.154 2.035-0.538 4.608-3.11 6.566-6.49 2.688-4.723 3.226-9.37 1.19-10.56-0.307-0.192-0.653-0.269-1.075-0.269zM13.043 24.294c-0.269 0-0.499-0.038-0.691-0.154-1.574-0.922-0.883-5.338 1.498-9.485 1.805-3.187 4.262-5.645 6.067-6.106 0.499-0.154 0.922-0.115 1.267 0.077 1.574 0.922 0.883 5.338-1.498 9.485-1.805 3.187-4.262 5.645-6.067 6.106-0.192 0.077-0.422 0.077-0.576 0.077zM20.493 9.011c-0.115 0-0.269 0.038-0.461 0.077-1.69 0.461-3.994 2.803-5.76 5.875-2.534 4.454-2.688 8.141-1.69 8.755 0.192 0.115 0.499 0.115 0.845 0.038 1.69-0.461 3.994-2.803 5.76-5.875 2.534-4.454 2.688-8.141 1.69-8.755-0.077-0.077-0.23-0.115-0.384-0.115z"></path>
<path fill="#77cbd2" style="fill: var(--color5, #77cbd2)" d="M20.493 25.37c-0.269 0-0.576-0.038-0.845-0.115-2.112-0.576-4.762-3.187-6.72-6.643-2.803-4.954-3.302-9.638-1.114-10.906 0.576-0.346 1.306-0.422 2.074-0.192 2.112 0.576 4.762 3.187 6.72 6.643 2.803 4.954 3.302 9.638 1.114 10.906-0.346 0.192-0.768 0.307-1.229 0.307zM13.043 8.742c-0.192 0-0.384 0.038-0.538 0.115-1.267 0.73-0.883 4.8 1.574 9.101 1.766 3.11 4.147 5.53 5.914 5.99 0.422 0.115 0.806 0.115 1.075-0.077 1.267-0.73 0.883-4.8-1.574-9.101-1.766-3.11-4.147-5.53-5.914-5.99-0.23-0.038-0.384-0.038-0.538-0.038z"></path>
<path fill="#472b29" style="fill: var(--color3, #472b29)" d="M20.493 25.638c-0.307 0-0.614-0.038-0.922-0.115-2.189-0.576-4.877-3.226-6.874-6.758-2.957-5.146-3.379-9.907-0.998-11.29 0.653-0.384 1.421-0.461 2.266-0.23 2.189 0.576 4.877 3.226 6.874 6.758 2.88 5.069 3.341 9.907 0.998 11.29-0.384 0.23-0.845 0.346-1.344 0.346zM13.043 7.667c-0.384 0-0.768 0.077-1.075 0.269-2.035 1.19-1.498 5.798 1.19 10.56 1.92 3.418 4.531 5.952 6.566 6.49 0.691 0.192 1.344 0.115 1.882-0.154 2.035-1.19 1.498-5.798-1.19-10.56-1.92-3.418-4.531-5.952-6.566-6.49-0.307-0.077-0.576-0.115-0.806-0.115zM20.493 24.294c-0.192 0-0.384-0.038-0.576-0.077-1.843-0.499-4.262-2.957-6.067-6.106-2.342-4.147-3.034-8.563-1.498-9.485 0.346-0.192 0.768-0.23 1.267-0.077 1.843 0.499 4.262 2.957 6.067 6.106 2.342 4.147 3.034 8.563 1.498 9.485-0.192 0.115-0.422 0.154-0.691 0.154zM13.043 9.011c-0.154 0-0.307 0.038-0.422 0.115-0.998 0.576-0.845 4.301 1.69 8.755 1.728 3.072 4.070 5.414 5.76 5.875 0.384 0.115 0.653 0.077 0.845-0.038 0.998-0.576 0.845-4.301-1.69-8.755-1.728-3.072-4.070-5.414-5.76-5.875-0.154-0.077-0.307-0.077-0.422-0.077z"></path>
<path fill="#77cbd2" style="fill: var(--color5, #77cbd2)" d="M18.88 16.384c0 1.166-0.946 2.112-2.112 2.112s-2.112-0.946-2.112-2.112c0-1.166 0.946-2.112 2.112-2.112s2.112 0.946 2.112 2.112z"></path>
<path fill="#472b29" style="fill: var(--color3, #472b29)" d="M16.768 18.688c-1.267 0-2.304-1.037-2.304-2.304s1.037-2.304 2.304-2.304 2.304 1.037 2.304 2.304-1.037 2.304-2.304 2.304zM16.768 14.464c-1.075 0-1.92 0.845-1.92 1.92s0.845 1.92 1.92 1.92 1.92-0.845 1.92-1.92-0.845-1.92-1.92-1.92z"></path>
<path fill="#472b29" style="fill: var(--color3, #472b29)" d="M16.768 17.728c-0.038 0-0.115-0.038-0.115-0.115s0.077-0.077 0.115-0.077 0.269-0.038 0.384-0.077c0.154-0.077 0.346-0.154 0.461-0.307 0.038-0.038 0.115-0.038 0.154 0s0.038 0.115 0 0.154c-0.154 0.154-0.346 0.269-0.538 0.346-0.154 0.038-0.307 0.077-0.461 0.077zM17.882 17.037h-0.038c-0.038-0.038-0.077-0.077-0.038-0.115 0.077-0.154 0.115-0.346 0.115-0.499 0-0.461-0.23-0.845-0.653-1.037-0.038-0.038-0.077-0.077-0.038-0.115s0.077-0.077 0.115-0.038c0.461 0.23 0.768 0.691 0.768 1.19 0 0.192-0.038 0.422-0.154 0.576 0 0-0.038 0.038-0.077 0.038zM16.077 15.424c-0.038 0-0.077 0-0.077-0.038-0.038-0.038 0-0.115 0.038-0.115 0.23-0.154 0.461-0.23 0.73-0.23 0.038 0 0.115 0.038 0.115 0.115s-0.077 0.077-0.115 0.077c-0.23 0-0.422 0.077-0.614 0.192h-0.077zM18.035 11.661c-0.038 0-0.038 0-0.077-0.038-1.306-1.613-2.573-2.688-3.686-3.187-0.038-0.038-0.077-0.077-0.038-0.115s0.077-0.077 0.115-0.038c1.152 0.499 2.458 1.574 3.763 3.264 0.038 0.038 0.038 0.115 0 0.154-0.038-0.038-0.077-0.038-0.077-0.038zM11.968 8.474c-0.038 0-0.038 0-0.077-0.038s-0.038-0.115 0-0.154c0.115-0.077 0.653-0.461 1.69-0.269 0.038 0 0.077 0.077 0.077 0.115s-0.077 0.077-0.115 0.077c-0.96-0.192-1.498 0.154-1.536 0.23zM25.062 18.342c-0.038 0-0.038 0-0.077-0.038s-0.038-0.115 0-0.154c0.845-0.691 1.152-1.459 0.96-2.342 0-0.038 0.038-0.115 0.077-0.115s0.115 0.038 0.115 0.077c0.192 0.922-0.154 1.805-1.037 2.534 0 0.038 0 0.038-0.038 0.038zM23.526 19.187c-0.038 0-0.077-0.038-0.077-0.077s0-0.115 0.077-0.115c0 0 0.499-0.154 1.037-0.499 0.038-0.038 0.115 0 0.115 0.038 0.038 0.038 0 0.115-0.038 0.115-0.576 0.384-1.075 0.538-1.114 0.538 0.038 0 0 0 0 0zM12.89 24.832c-0.96-0.038-1.574-0.73-1.805-2.035 0-0.038 0.038-0.115 0.077-0.115s0.115 0.038 0.115 0.077c0.192 1.229 0.73 1.843 1.613 1.882 0.038 0 0.077 0.038 0.077 0.115 0 0-0.038 0.077-0.077 0.077zM11.123 21.99c-0.038 0-0.077-0.038-0.115-0.077-0.038-0.806 0.077-1.536 0.115-1.613 0-0.038 0.077-0.077 0.115-0.077s0.077 0.077 0.077 0.115c0 0.038-0.115 0.73-0.115 1.574 0 0.038-0.038 0.077-0.077 0.077z"></path>
<path fill="#fdfcef" style="fill: var(--color2, #fdfcef)" d="M27.213 21.491h1.344c0.806 0 1.459-0.653 1.459-1.421 0-0.691-0.499-1.267-1.152-1.421v-0.192c0-0.806-0.691-1.498-1.536-1.498-0.499 0-0.922 0.23-1.229 0.576-0.077-0.922-0.922-1.613-1.882-1.498-0.73 0.077-1.306 0.614-1.421 1.306-0.038 0.23-0.038 0.422 0 0.653-0.192-0.192-0.461-0.346-0.768-0.346-0.538 0-0.998 0.422-1.037 0.96-0.269-0.038-0.538-0.038-0.806 0.038-0.538 0.192-0.96 0.73-0.96 1.306-0.038 0.806 0.653 1.498 1.459 1.498h3.379zM24.717 21.491h0.154z"></path>
<path fill="#472b29" style="fill: var(--color3, #472b29)" d="M28.557 21.683h-1.344c-0.115 0-0.192-0.077-0.192-0.192s0.077-0.192 0.192-0.192h1.344c0.691 0 1.267-0.576 1.267-1.229 0-0.576-0.422-1.114-0.998-1.229-0.115-0.038-0.154-0.115-0.154-0.23v-0.154c0-0.73-0.614-1.306-1.344-1.306-0.422 0-0.806 0.192-1.075 0.499-0.038 0.077-0.115 0.077-0.192 0.077-0.077-0.038-0.115-0.077-0.154-0.154-0.038-0.384-0.23-0.73-0.538-0.998s-0.73-0.384-1.152-0.346c-0.614 0.077-1.152 0.538-1.267 1.152-0.038 0.192-0.038 0.384 0 0.576 0 0.077-0.038 0.154-0.115 0.192s-0.154 0.038-0.23-0.038c-0.154-0.192-0.384-0.269-0.614-0.269-0.461 0-0.806 0.346-0.845 0.768 0 0.038-0.038 0.115-0.077 0.154s-0.115 0.038-0.154 0.038c-0.23-0.038-0.461-0.038-0.691 0.038-0.499 0.192-0.806 0.614-0.845 1.114 0 0.346 0.115 0.653 0.346 0.883 0.23 0.269 0.576 0.384 0.922 0.384h3.379c0.115 0 0.192 0.077 0.192 0.192s-0.077 0.192-0.192 0.192h-3.379c-0.461 0-0.883-0.192-1.19-0.499s-0.461-0.73-0.461-1.19c0.038-0.653 0.461-1.229 1.075-1.459 0.23-0.077 0.461-0.115 0.73-0.077 0.115-0.538 0.614-0.922 1.19-0.922 0.192 0 0.384 0.038 0.538 0.115 0-0.077 0-0.192 0.038-0.269 0.154-0.768 0.806-1.382 1.613-1.459 0.538-0.077 1.037 0.077 1.421 0.422 0.269 0.23 0.499 0.538 0.576 0.883 0.307-0.23 0.691-0.384 1.075-0.384 0.96 0 1.728 0.768 1.728 1.69v0.038c0.691 0.23 1.152 0.845 1.152 1.536 0.077 0.922-0.653 1.651-1.574 1.651zM24.87 21.683h-0.154c-0.115 0-0.192-0.077-0.192-0.192s0.077-0.192 0.192-0.192h0.154c0.115 0 0.192 0.077 0.192 0.192s-0.115 0.192-0.192 0.192z"></path>
<path fill="#472b29" style="fill: var(--color3, #472b29)" d="M27.904 19.456c-0.077 0-0.115-0.077-0.077-0.115 0-0.077 0.038-0.115 0.077-0.192 0.23-0.461 0.883-0.653 1.421-0.384 0.038 0.038 0.077 0.077 0.038 0.115s-0.077 0.077-0.115 0.038c-0.461-0.23-0.998-0.077-1.19 0.307-0.038 0.038-0.038 0.077-0.038 0.154-0.038 0.038-0.077 0.077-0.115 0.077zM25.946 21.683h-0.422c-0.115 0-0.192-0.077-0.192-0.192s0.077-0.192 0.192-0.192h0.422c0.115 0 0.192 0.077 0.192 0.192s-0.115 0.192-0.192 0.192z"></path>
</symbol>

<symbol id="icon-sass" viewBox="0 0 32 32">
<path fill="#f06292" style="fill: var(--color1, #f06292)" d="M26.578 17.304c-0.968 0-1.882 0.229-2.692 0.634l0.035-0.016c-0.272-0.543-0.548-1.021-0.594-1.377-0.054-0.415-0.117-0.663-0.051-1.157s0.351-1.194 0.347-1.247c-0.004-0.053-0.064-0.304-0.655-0.309s-1.097 0.114-1.157 0.27-0.173 0.507-0.244 0.874c-0.103 0.536-1.181 2.449-1.792 3.449-0.2-0.391-0.37-0.735-0.405-1.007-0.054-0.415-0.117-0.663-0.051-1.157s0.351-1.194 0.347-1.247c-0.004-0.053-0.064-0.304-0.655-0.309s-1.097 0.114-1.157 0.27-0.123 0.521-0.244 0.874c-0.121 0.353-1.553 3.543-1.928 4.37-0.191 0.421-0.357 0.76-0.475 0.991l-0.001-0.001-0.019 0.041c-0.101 0.197-0.16 0.305-0.16 0.305l0.002 0.004c-0.080 0.145-0.165 0.279-0.207 0.279-0.029 0-0.089-0.385 0.013-0.913 0.213-1.107 0.725-2.832 0.72-2.892-0.003-0.031 0.095-0.331-0.334-0.489-0.417-0.153-0.566 0.102-0.604 0.103-0.037 0.001-0.064 0.090-0.064 0.090s0.465-1.941-0.887-1.941c-0.845 0-2.016 0.925-2.593 1.763-0.364 0.199-1.143 0.624-1.969 1.078l-0.949 0.522-0.063-0.069c-1.639-1.749-4.669-2.985-4.541-5.337 0.047-0.855 0.344-3.105 5.822-5.835 4.487-2.236 8.080-1.621 8.701-0.257 0.887 1.949-1.92 5.569-6.58 6.092-1.775 0.199-2.711-0.489-2.943-0.745-0.245-0.27-0.281-0.282-0.373-0.231-0.149 0.083-0.055 0.321 0 0.463 0.139 0.362 0.71 1.004 1.683 1.324 0.857 0.281 2.941 0.435 5.462-0.54 2.824-1.092 5.029-4.131 4.381-6.67-0.659-2.583-4.941-3.432-8.995-1.992-2.415 0.857-5.027 2.203-6.905 3.959-2.233 2.088-2.589 3.906-2.442 4.665 0.521 2.699 4.241 4.456 5.73 5.758l-0.205 0.113c-0.747 0.369-3.582 1.853-4.291 3.421-0.805 1.778 0.128 3.054 0.745 3.226 1.913 0.532 3.875-0.425 4.931-1.999s0.926-3.621 0.442-4.556l-0.019-0.035 0.584-0.345c0.38-0.223 0.753-0.431 1.077-0.607-0.181 0.496-0.314 1.091-0.383 1.951-0.081 1.009 0.333 2.314 0.874 2.827 0.239 0.226 0.525 0.231 0.707 0.231 0.63 0 0.917-0.524 1.234-1.144 0.388-0.76 0.733-1.645 0.733-1.645s-0.432 2.391 0.745 2.391c0.429 0 0.861-0.557 1.053-0.84l0.001 0.005 0.033-0.055c0.045-0.068 0.070-0.111 0.070-0.111l0.002-0.013c0.27-0.451 0.646-1.141 1.005-1.841l0.124-0.267c0.741-1.455 1.452-3.277 1.452-3.277s0.066 0.445 0.283 1.183c0.127 0.433 0.398 0.913 0.612 1.373-0.172 0.239-0.277 0.375-0.277 0.375l0.003 0.007c-0.137 0.183-0.291 0.379-0.453 0.571-0.585 0.697-1.282 1.493-1.375 1.722-0.11 0.271-0.084 0.469 0.129 0.63 0.155 0.117 0.431 0.135 0.72 0.116 0.394-0.022 0.761-0.11 1.099-0.253l-0.021 0.008c0.354-0.127 0.66-0.291 0.937-0.494l-0.010 0.007c0.574-0.422 0.92-1.025 0.887-1.825-0.019-0.441-0.159-0.877-0.337-1.289l0.157-0.227c0.905-1.323 1.607-2.776 1.607-2.776s0.066 0.445 0.283 1.183c0.109 0.373 0.326 0.78 0.521 1.179-0.851 0.691-1.378 1.495-1.561 2.021-0.339 0.975-0.073 1.416 0.424 1.517 0.225 0.045 0.544-0.058 0.783-0.159 0.378-0.128 0.706-0.3 1.001-0.516l-0.010 0.007c0.574-0.422 1.126-1.013 1.093-1.812-0.015-0.364-0.114-0.725-0.248-1.072 0.721-0.301 1.655-0.467 2.844-0.329 2.551 0.298 3.051 1.891 2.956 2.557s-0.631 1.033-0.81 1.144c-0.179 0.111-0.233 0.149-0.219 0.231 0.022 0.119 0.105 0.115 0.257 0.089 0.21-0.035 1.339-0.542 1.388-1.773 0.061-1.564-1.436-3.28-4.087-3.266zM6.913 23.933c-0.845 0.922-2.025 1.27-2.532 0.977-0.547-0.317-0.33-1.674 0.707-2.653 0.632-0.596 1.448-1.145 1.989-1.483l0.524-0.315 0.057-0.032-0.001-0.001 0.131-0.079c0.378 1.393 0.012 2.619-0.875 3.586zM13.070 19.749c-0.294 0.717-0.91 2.553-1.285 2.455-0.322-0.085-0.518-1.48-0.064-2.853 0.228-0.691 0.716-1.517 1.003-1.838 0.461-0.516 0.969-0.685 1.093-0.475 0.157 0.267-0.561 2.262-0.746 2.712zM18.156 22.175c-0.125 0.065-0.239 0.106-0.292 0.075-0.039-0.023 0.051-0.109 0.051-0.109s0.636-0.685 0.887-0.996c0.146-0.181 0.315-0.397 0.499-0.637l0.002 0.071c-0.001 0.82-0.793 1.373-1.147 1.596zM22.074 21.282c-0.093-0.066-0.077-0.28 0.229-0.947 0.12-0.262 0.395-0.703 0.871-1.124 0.055 0.173 0.089 0.339 0.088 0.494-0.006 1.032-0.742 1.417-1.187 1.577z"></path>
</symbol>

<symbol id="icon-css" viewBox="0 0 32 32">
<path fill="#3070b7" style="fill: var(--color2, #3070b7)" d="M26.594 4.8h-21.187l1.869 21.188 8.724 2.492 8.724-2.492 1.869-21.188z"></path>
<path fill="#1f212b" style="fill: var(--color3, #1f212b)" d="M16 28.8c-0 0-0 0-0 0-0.031 0-0.061-0.005-0.090-0.013l0.002 0.001-8.724-2.493c-0.126-0.037-0.219-0.146-0.231-0.278l-0-0.001-1.87-21.187c-0.001-0.008-0.001-0.018-0.001-0.028 0-0.177 0.143-0.32 0.32-0.32 0 0 0 0 0 0h21.188c0 0 0 0 0 0 0.177 0 0.32 0.143 0.32 0.32 0 0.010-0 0.020-0.001 0.030l0-0.001-1.87 21.187c-0.012 0.134-0.105 0.243-0.229 0.279l-0.002 0.001-8.724 2.493c-0.026 0.008-0.056 0.012-0.088 0.012v0zM7.575 25.74l8.425 2.407 8.425-2.407 1.82-20.62h-20.489l1.82 20.62z"></path>
<path fill="#09ace3" style="fill: var(--color4, #09ace3)" d="M16 6.56v19.988l6.98-1.994 1.567-17.994z"></path>
<path fill="#fefdef" style="fill: var(--color5, #fefdef)" d="M21.671 9.785h-5.671l-0.32 1.095 0.32 1.398h3.053l-0.187 2.493h-2.867l-0.32 1.229 0.32 1.263h2.742l-0.187 2.804-2.555 0.872-0.32 1.46 0.32 1.157 4.923-1.62 0.436-7.166z"></path>
<path fill="#eeecd9" style="fill: var(--color6, #eeecd9)" d="M16 9.785v2.492h-5.546l-0.187-2.492h5.733zM13.133 14.771l0.124 2.492h2.742v-2.492h-2.867zM13.383 18.509h-2.492l0.187 3.428 4.923 1.62v-2.617l-2.555-0.872-0.062-1.558z"></path>
<path fill="#1f212b" style="fill: var(--color3, #1f212b)" d="M16 9.945c-0.088 0-0.16-0.072-0.16-0.16v0-3.225c0-0.088 0.072-0.16 0.16-0.16v0h1.12c0.088 0 0.16 0.072 0.16 0.16s-0.072 0.16-0.16 0.16v0h-0.96v3.065c0 0.088-0.072 0.16-0.16 0.16v0zM19.36 6.72h-1.28c-0.088 0-0.16-0.072-0.16-0.16s0.072-0.16 0.16-0.16v0h1.28c0.088 0 0.16 0.072 0.16 0.16s-0.072 0.16-0.16 0.16v0zM16 26.708c-0.088-0.001-0.159-0.072-0.16-0.16v-2.068c0-0.088 0.072-0.16 0.16-0.16s0.16 0.072 0.16 0.16v0 1.856l6.67-1.906 1.542-17.71h-4.052c-0.088 0-0.16-0.072-0.16-0.16s0.072-0.16 0.16-0.16v0h4.227c0 0 0 0 0 0 0.088 0 0.16 0.072 0.16 0.16 0 0.005-0 0.010-0.001 0.015l0-0.001-1.567 17.994c-0.006 0.067-0.052 0.122-0.114 0.14l-0.001 0-6.98 1.994c-0.013 0.004-0.028 0.006-0.044 0.006-0 0-0 0-0 0v0zM16 21.1c-0.088 0-0.16-0.072-0.16-0.16v0-2.717c0-0.088 0.072-0.16 0.16-0.16s0.16 0.072 0.16 0.16v0 2.717c0 0.088-0.072 0.16-0.16 0.16v0zM16 14.931c-0.088 0-0.16-0.072-0.16-0.16v0-1.532c0-0.088 0.072-0.16 0.16-0.16s0.16 0.072 0.16 0.16v0 1.532c0 0.088-0.072 0.16-0.16 0.16v0z"></path>
<path fill="#1f212b" style="fill: var(--color3, #1f212b)" d="M16 23.717c-0 0-0 0-0 0-0.018 0-0.035-0.003-0.051-0.008l0.001 0-4.923-1.62c-0.062-0.021-0.106-0.076-0.11-0.143l-0-0-0.187-3.427c-0-0.003-0-0.006-0-0.009 0-0.088 0.072-0.16 0.16-0.16h2.493c0 0 0 0 0 0 0.086 0 0.156 0.068 0.16 0.153v0l0.058 1.448 2.399 0.819 2.403-0.82 0.168-2.527h-5.313c-0.085-0-0.155-0.067-0.16-0.152l-0-0-0.125-2.493c-0-0.003-0-0.006-0-0.009 0-0.088 0.071-0.159 0.159-0.159 0 0 0.001 0 0.001 0h5.585l0.163-2.172h-8.427c-0 0-0 0-0 0-0.084 0-0.153-0.065-0.159-0.147l-0-0.001-0.187-2.493c-0-0.004-0.001-0.008-0.001-0.012 0-0.088 0.071-0.159 0.159-0.159 0 0 0.001 0 0.001 0h11.404c0.088 0 0.16 0.072 0.16 0.161 0 0.003-0 0.007-0 0.010l0-0-0.748 12.151c-0.004 0.067-0.048 0.122-0.109 0.142l-0.001 0-4.923 1.62c-0.015 0.004-0.032 0.007-0.050 0.007h-0zM11.231 21.819l4.769 1.569 4.77-1.57 0.731-11.873h-11.061l0.163 2.173h8.451c0 0 0 0 0 0 0.088 0 0.16 0.072 0.16 0.16 0 0.004-0 0.008-0 0.012l0-0.001-0.187 2.492c-0.006 0.083-0.075 0.148-0.16 0.148-0 0-0 0-0 0h-5.565l0.109 2.173h5.332c0 0 0 0 0.001 0 0.088 0 0.159 0.071 0.159 0.159 0 0.004-0 0.008-0 0.012l0-0.001-0.187 2.804c-0.005 0.066-0.048 0.12-0.107 0.14l-0.001 0-2.555 0.873c-0.015 0.005-0.033 0.009-0.052 0.009s-0.036-0.003-0.053-0.009l0.001 0-2.555-0.873c-0.062-0.021-0.105-0.078-0.108-0.145v-0l-0.056-1.404h-2.17l0.172 3.15z"></path>
</symbol>

<symbol id="icon-html" viewBox="0 0 32 32">
<path fill="#e65100" style="fill: var(--color7, #e65100)" d="M27.333 3.333h-22.667l2 22.667 9.333 2.667 9.333-2.667 2-22.667z"></path>
<path fill="#ff6d00" style="fill: var(--color8, #ff6d00)" d="M16 5.333v21.267l7.467-2.133 1.667-19.133z"></path>
<path fill="#fff" style="fill: var(--color9, #fff)" d="M16 16.667v-2.667h5.733l-0.467 7.667-5.267 1.733v-2.8l2.733-0.933 0.2-3h-2.933zM21.933 11.333l0.2-2.667h-6.133v2.667h5.933z"></path>
<path fill="#eee" style="fill: var(--color10, #eee)" d="M16 20.6v2.8l-5.267-1.733-0.267-3.667h2.667l0.133 1.667 2.733 0.933zM12.733 11.333h3.267v-2.667h-6.067l0.467 8h5.6v-2.667h-3.067l-0.2-2.667z"></path>
</symbol>

<symbol id="icon-js" viewBox="0 0 32 32">
<path fill="#fed03d" style="fill: var(--color1, #fed03d)" d="M4 28v-24h24v24z"></path>
<path fill="#000001" style="fill: var(--color2, #000001)" d="M19.692 21.965c0.461 0.749 0.963 1.467 2.025 1.467 0.892 0 1.36-0.443 1.36-1.057 0-0.734-0.484-0.995-1.465-1.422l-0.538-0.229c-1.553-0.659-2.585-1.484-2.585-3.227 0-1.607 1.23-2.829 3.152-2.829 1.369 0 2.352 0.474 3.061 1.715l-1.676 1.071c-0.369-0.659-0.767-0.918-1.385-0.918-0.631 0-1.030 0.398-1.030 0.918 0 0.643 0.4 0.903 1.323 1.301l0.538 0.229c1.83 0.779 2.862 1.575 2.862 3.365 0 1.928-1.523 2.985-3.567 2.985-1.999 0-3.135-1.003-3.767-2.245zM11.968 22.019c0.337 0.604 0.85 1.069 1.587 1.069 0.705 0 1.111-0.279 1.111-1.362v-7.059h2.222v7.401c0 2.245-1.302 3.266-3.203 3.266-1.718 0-2.958-1.164-3.463-2.245z"></path>
</symbol>

<symbol id="icon-vite" viewBox="0 0 32 32">
<path fill="#9575cd" style="fill: var(--color1, #9575cd)" d="M29.907 6.651l-13.225 23.648c-0.273 0.488-0.975 0.491-1.252 0.005l-13.487-23.651c-0.302-0.529 0.151-1.171 0.751-1.063l13.239 2.367c0.085 0.015 0.171 0.015 0.255-0.001l12.962-2.363c0.598-0.109 1.053 0.527 0.756 1.058z"></path>
<path fill="#fbc02d" style="fill: var(--color2, #fbc02d)" d="M22.383 2.007l-9.703 1.901c-0.159 0.031-0.277 0.167-0.287 0.329l-0.597 10.081c-0.014 0.237 0.204 0.422 0.436 0.368l2.701-0.623c0.253-0.058 0.481 0.164 0.429 0.419l-0.803 3.93c-0.054 0.265 0.194 0.491 0.453 0.412l1.669-0.507c0.259-0.079 0.507 0.148 0.453 0.413l-1.275 6.173c-0.080 0.386 0.434 0.597 0.648 0.265l0.143-0.221 7.907-15.779c0.133-0.264-0.096-0.565-0.386-0.509l-2.781 0.537c-0.261 0.051-0.483-0.193-0.41-0.449l1.815-6.292c0.073-0.255-0.149-0.499-0.411-0.447z"></path>
</symbol>

<symbol id="icon-tailwind" viewBox="0 0 32 32">
<path fill="#fed03d" style="fill: var(--color1, #fed03d)" d="M16 6.403c-4.267 0-6.933 2.133-8 6.398 1.6-2.133 3.467-2.932 5.6-2.399 1.217 0.304 2.087 1.187 3.051 2.165 1.568 1.591 3.383 3.434 7.349 3.434 4.267 0 6.933-2.133 8-6.399-1.6 2.133-3.467 2.933-5.6 2.4-1.217-0.304-2.087-1.187-3.050-2.165-1.569-1.592-3.385-3.434-7.35-3.434zM8 16c-4.267 0-6.933 2.133-8 6.399 1.6-2.133 3.467-2.933 5.6-2.399 1.217 0.305 2.087 1.187 3.050 2.164 1.569 1.592 3.385 3.435 7.35 3.435 4.267 0 6.933-2.133 8-6.399-1.6 2.133-3.467 2.933-5.6 2.399-1.217-0.304-2.087-1.187-3.051-2.164-1.568-1.592-3.383-3.435-7.349-3.435z"></path>
</symbol>

<symbol id="icon-leadership" viewBox="0 0 32 32">
<path d="M6.356 17.387c-1.072 0-2.080-0.441-2.836-1.135-0.722-0.754-1.174-1.772-1.197-2.895l-0-0.005c0-1.072 0.504-2.080 1.198-2.836 0.756-0.693 1.765-1.135 2.836-1.135 2.21 0 4.002 1.792 4.002 4.002s-1.792 4.002-4.002 4.002v0zM4.781 14.992c0.378 0.378 0.945 0.63 1.576 0.63 0.63-0.007 1.204-0.245 1.641-0.633l-0.003 0.002c0.392-0.42 0.633-0.985 0.633-1.607s-0.241-1.187-0.634-1.609l0.001 0.001c-0.435-0.385-1.008-0.623-1.637-0.63h-0.002c-0.63 0-1.198 0.252-1.576 0.63-0.426 0.392-0.693 0.953-0.693 1.576v0c0 0.63 0.252 1.198 0.693 1.639zM6.356 25.013h-5.042c-0.504 0-0.882-0.378-0.882-0.882v-2.143c0-1.828 1.576-2.962 3.656-3.467 0.756-0.126 1.513-0.252 2.269-0.252s1.576 0.126 2.269 0.252c0.693 0.189 1.324 0.378 1.891 0.693-0.693 0.315-1.261 0.756-1.639 1.198-0.189-0.063-0.378-0.126-0.63-0.189-0.568-0.119-1.222-0.188-1.891-0.188s-1.322 0.068-1.953 0.198l0.062-0.011c-1.261 0.315-2.269 0.882-2.269 1.765v1.261h6.303v0.882h3.845c0 0.504-0.378 0.882-0.882 0.882h-5.105zM25.58 17.387c-1.072 0-2.080-0.441-2.836-1.135-0.703-0.758-1.135-1.778-1.135-2.897 0-0.001 0-0.001 0-0.002v0c0-1.072 0.441-2.080 1.135-2.836 0.756-0.693 1.765-1.135 2.836-1.135 1.135 0 2.143 0.441 2.899 1.135 0.693 0.756 1.135 1.765 1.135 2.836 0 1.135-0.441 2.143-1.135 2.899-0.756 0.693-1.765 1.135-2.899 1.135zM24.005 14.992c0.441 0.378 1.008 0.63 1.576 0.63 0.63-0.007 1.204-0.245 1.641-0.633l-0.003 0.002c0.392-0.42 0.633-0.985 0.633-1.607s-0.241-1.187-0.634-1.609l0.001 0.001c-0.435-0.385-1.008-0.623-1.637-0.63h-0.002c-0.567 0-1.135 0.252-1.576 0.63-0.392 0.42-0.633 0.985-0.633 1.607s0.241 1.187 0.634 1.609l-0.001-0.001zM25.58 25.013h-5.042c-0.504 0-0.882-0.378-0.882-0.882h3.782v-0.882h6.366v-1.261c0-0.882-1.008-1.45-2.332-1.765-0.567-0.126-1.198-0.189-1.891-0.189-0.63 0-1.261 0.063-1.828 0.189l-0.693 0.189c-0.413-0.518-0.943-0.926-1.55-1.188l-0.026-0.010c0.504-0.315 1.198-0.504 1.828-0.693 0.756-0.126 1.513-0.252 2.269-0.252 0.819 0 1.576 0.126 2.269 0.252 2.080 0.504 3.719 1.639 3.719 3.467v2.143c0 0.504-0.378 0.882-0.882 0.882h-5.105z"></path>
<path d="M16 16.189c-1.261 0-2.458-0.504-3.277-1.324-0.813-0.851-1.316-2.005-1.324-3.276v-0.002c0-1.261 0.504-2.458 1.324-3.277s2.017-1.324 3.277-1.324 2.395 0.504 3.277 1.324c0.819 0.819 1.324 2.017 1.324 3.277s-0.504 2.458-1.324 3.277c-0.851 0.813-2.005 1.316-3.276 1.324h-0.002zM13.983 13.605c0.523 0.501 1.234 0.809 2.017 0.809s1.494-0.308 2.018-0.81l-0.001 0.001c0.501-0.523 0.809-1.234 0.809-2.017s-0.308-1.494-0.81-2.018l0.001 0.001c-0.523-0.501-1.234-0.809-2.017-0.809s-1.494 0.308-2.018 0.81l0.001-0.001c-0.501 0.523-0.809 1.234-0.809 2.017s0.308 1.494 0.81 2.018l-0.001-0.001zM16 25.013h-7.5c-0.441 0-0.882-0.378-0.882-0.882v-2.521c0-2.143 2.269-3.467 5.168-3.971 1.008-0.189 2.143-0.315 3.215-0.315s2.206 0.126 3.215 0.315c2.899 0.504 5.105 1.828 5.105 3.971v2.521c0 0.504-0.378 0.882-0.882 0.882h-7.437zM9.382 23.248h13.173v-1.639c0-1.135-1.576-1.891-3.656-2.269-0.882-0.126-1.891-0.252-2.899-0.252s-2.017 0.126-2.899 0.252c-2.080 0.378-3.719 1.135-3.719 2.269v1.639z"></path>
</symbol>

<symbol id="icon-communication" viewBox="0 0 32 32">
<path d="M6.636 20.135c1.829 0 3.357-1.306 3.627-3.074 0.035-0.225 0.169-0.412 0.354-0.521l0.003-0.002 0.050-0.029c0.095-0.056 0.208-0.091 0.328-0.097l0.002-0c4.606-0.222 8.166-3.224 8.166-6.778 0-3.709-3.867-6.791-8.709-6.791s-8.709 3.081-8.709 6.791c0 2.58 1.883 4.933 4.84 6.082l0.186 0.084c0.253 0.118 0.425 0.371 0.425 0.664v0c0 1.358-0.533 2.625-1.439 3.564 0.262 0.067 0.563 0.105 0.873 0.105 0.001 0 0.002 0 0.003 0h-0zM6.636 21.597c-0.921 0-1.808-0.244-2.586-0.698-0.143-0.073-0.249-0.166-0.324-0.29-0.21-0.345-0.1-0.795 0.245-1.004 0.956-0.581 1.595-1.56 1.737-2.667 0.020-0.155 0.030-0.312 0.030-0.471h0.731l-0.305 0.664-0.145-0.067 0.305-0.664-0.265 0.681c-0.195-0.074-0.311-0.122-0.425-0.172l0.075 0.029c-3.285-1.405-5.421-4.18-5.421-7.302 0-4.599 4.585-8.252 10.171-8.252s10.171 3.653 10.171 8.252c0 4.267-3.96 7.746-9.037 8.202-0.172 0.015-0.346 0.027-0.521 0.036l-0.035-0.73 0.365 0.633-0.415-0.604 0.722 0.11c-0.034 0.22-0.074 0.407-0.125 0.591l0.008-0.036c-0.591 2.196-2.6 3.76-4.955 3.76zM11.84 20.395c-0.112-0.388 0.112-0.793 0.499-0.905s0.793 0.112 0.905 0.499c0.83 2.875 4.025 5.049 7.877 5.234 0.122 0.006 0.236 0.041 0.334 0.099l-0.003-0.002 0.049 0.029c0.189 0.11 0.322 0.298 0.356 0.518l0.001 0.004c0.267 1.748 1.779 3.040 3.588 3.040 0.652 0 1.278-0.172 1.829-0.494 0.349-0.204 0.796-0.086 1 0.262s0.086 0.796-0.262 1c-0.773 0.452-1.653 0.693-2.566 0.693-2.336 0-4.328-1.549-4.916-3.726-4.209-0.381-7.714-2.872-8.69-6.253z"></path>
<path d="M28.091 28.387c0.345 0.21 0.455 0.659 0.245 1.004s-0.659 0.455-1.004 0.245c-1.509-0.917-2.451-2.555-2.451-4.354 0-0.293 0.172-0.546 0.421-0.662l0.005-0.002 0.144-0.066 0.040-0.017c2.927-1.138 4.792-3.468 4.792-6.021 0-3.328-3.164-6.194-7.425-6.658-0.401-0.044-0.691-0.404-0.648-0.806s0.404-0.691 0.806-0.648c4.947 0.538 8.729 3.964 8.729 8.111 0 3.094-2.116 5.845-5.371 7.24 0.142 1.094 0.774 2.060 1.718 2.634z"></path>
</symbol>

<symbol id="icon-handshake" viewBox="0 0 32 32">
<path d="M24.72 6.318l-3.006 2.72c-0.144 0.13-0.228 0.312-0.235 0.505-0.007 0.185 0.057 0.365 0.18 0.504-0.162 0.066-0.324 0.117-0.485 0.149-1.591 0.323-3.303-0.421-4.618-0.222-0.085 0.013-0.168 0.029-0.249 0.043-0.226-0.058-0.461-0.106-0.71-0.144-0.18-0.027-0.361-0.038-0.542-0.038-0.518 0.001-1.035 0.087-1.549 0.165s-1.020 0.154-1.498 0.154c-0.251 0-0.494-0.020-0.727-0.068-0.25-0.049-0.517-0.16-0.788-0.313 0.022-0.073 0.032-0.151 0.029-0.228-0.008-0.193-0.093-0.376-0.236-0.505l-3.006-2.72c-1.776-1.353-8.118 7.187-7.187 8.202 0.929 1.015 2.606 2.536 2.606 2.536 0.138 0.133 0.323 0.208 0.516 0.203s0.375-0.085 0.507-0.224l1.132-1.195c0.016 0.018 0.032 0.035 0.045 0.053 0.097 0.112 0.171 0.225 0.201 0.287 0.127 0.27 0.45 0.928 0.881 1.664 0.216 0.368 0.459 0.755 0.719 1.125 0.132 0.186 0.268 0.368 0.409 0.541-0.382 0.472-0.379 1.166 0.037 1.635 0.465 0.525 1.267 0.573 1.791 0.108l0.036-0.032c-0.226 0.45-0.171 1.012 0.183 1.412 0.465 0.524 1.266 0.573 1.791 0.108l0.206-0.187c-0.282 0.462-0.243 1.074 0.134 1.501 0.465 0.523 1.266 0.572 1.79 0.108l0.318-0.288c-0.299 0.466-0.268 1.091 0.117 1.526 0.465 0.524 1.267 0.573 1.791 0.108l0.512-0.441c0.050 0.023 0.096 0.044 0.14 0.065l0.351 0.205-0.003-0.003c0.174 0.105 0.357 0.189 0.545 0.248s0.384 0.094 0.583 0.094c0.216 0 0.437-0.041 0.641-0.133 0.207-0.091 0.396-0.231 0.553-0.409 0.188-0.212 0.313-0.46 0.377-0.719 0.187 0.068 0.382 0.102 0.576 0.102 0.235 0 0.468-0.048 0.686-0.144s0.42-0.24 0.587-0.428c0.207-0.233 0.338-0.511 0.395-0.799 0.111 0.022 0.223 0.035 0.336 0.035 0.234 0 0.468-0.047 0.686-0.144 0.218-0.096 0.419-0.24 0.586-0.428 0.226-0.256 0.362-0.564 0.408-0.881 0.048 0.004 0.097 0.006 0.145 0.006 0.281 0 0.557-0.061 0.812-0.168s0.491-0.267 0.683-0.481c0.176-0.201 0.311-0.435 0.406-0.687s0.151-0.523 0.152-0.8c0-0.101-0.008-0.203-0.026-0.304 0.978-1.087 1.495-2.899 1.719-3.374 0.007-0.016 0.015-0.031 0.024-0.048l1.101 1.161c0.131 0.14 0.314 0.22 0.506 0.224 0.194 0.004 0.379-0.070 0.516-0.203 0 0 1.677-1.521 2.607-2.536s-5.412-9.555-7.188-8.202zM24.359 20.040c-0.055 0.148-0.137 0.283-0.216 0.372v-0.001c-0.073 0.084-0.187 0.165-0.32 0.222s-0.283 0.087-0.415 0.087c-0.087 0-0.167-0.013-0.231-0.035-0.004-0.002-0.008-0.003-0.012-0.004l-1.447-1.397c-0.202-0.194-0.523-0.188-0.717 0.013s-0.189 0.523 0.012 0.717l1.167 1.127c0.004 0.011 0.008 0.022 0.014 0.033 0.049 0.095 0.073 0.203 0.073 0.309-0.001 0.163-0.056 0.321-0.172 0.453-0.069 0.078-0.149 0.134-0.236 0.173s-0.182 0.059-0.276 0.059c-0.164-0.001-0.322-0.056-0.454-0.173l-0.030-0.027c-0.005-0.006-0.009-0.013-0.015-0.020l-1.269-1.324c-0.194-0.203-0.515-0.21-0.717-0.016s-0.209 0.516-0.016 0.718l1.075 1.124c0.003 0.004 0.005 0.009 0.007 0.012 0.065 0.108 0.099 0.232 0.099 0.357 0 0.164-0.055 0.322-0.172 0.454-0.068 0.077-0.149 0.133-0.236 0.173-0.087 0.038-0.182 0.057-0.277 0.057-0.163 0-0.322-0.055-0.453-0.171l-0.020-0.016-0.393-0.315-0.642-0.682c-0.192-0.203-0.513-0.213-0.717-0.021s-0.214 0.514-0.022 0.717l0.61 0.647c0.063 0.106 0.096 0.226 0.096 0.348-0 0.162-0.056 0.321-0.171 0.452-0.070 0.079-0.136 0.125-0.205 0.155s-0.141 0.046-0.23 0.046c-0.081 0-0.174-0.014-0.277-0.047s-0.216-0.084-0.332-0.152l-0.003-0.003-0.178-0.104c0.496-0.468 0.535-1.248 0.079-1.763-0.459-0.517-1.245-0.569-1.77-0.124l0.095-0.085c0.524-0.464 0.572-1.266 0.108-1.79s-1.267-0.573-1.79-0.108l-0.31 0.28c0.299-0.465 0.268-1.091-0.118-1.526-0.464-0.524-1.265-0.573-1.79-0.108l-0.412 0.376c0.193-0.439 0.129-0.97-0.21-1.353-0.464-0.525-1.266-0.573-1.79-0.108l-0.874 0.775c-0.11-0.138-0.22-0.285-0.328-0.438-0.358-0.508-0.694-1.074-0.96-1.56s-0.466-0.891-0.552-1.077c-0.046-0.097-0.1-0.186-0.159-0.272-0.091-0.133-0.197-0.257-0.304-0.374l4.293-4.532c0.38 0.231 0.789 0.42 1.23 0.51 0.314 0.064 0.626 0.087 0.93 0.087 0.58-0 1.137-0.085 1.653-0.165 0.13-0.021 0.257-0.040 0.381-0.059-0.387 0.267-0.761 0.583-1.161 0.955-1.136 1.061-2.118 2.357-2.662 2.946s0.467 1.609 2.077 1.141c1.61-0.467 2.303-1.668 2.303-1.668l2.020-0.725 2.006 0.459 4.848 4.364 0.837 0.81 0.017 0.014c0.033 0.031 0.059 0.067 0.081 0.126s0.036 0.138 0.036 0.233c0 0.134-0.030 0.294-0.086 0.442z"></path>
</symbol>

<symbol id="icon-share" viewBox="0 0 32 32">
<path d="M16 5.056c0.788 0 1.427-0.639 1.427-1.427s-0.639-1.427-1.427-1.427v0 2.855zM30.75 16.952c0-0.788-0.639-1.427-1.427-1.427s-1.427 0.639-1.427 1.427v0h2.855zM29.323 5.056c0.788 0 1.427-0.639 1.427-1.427s-0.639-1.427-1.427-1.427v0 2.855zM21.542 2.202c-0.788 0-1.427 0.639-1.427 1.427s0.639 1.427 1.427 1.427v0-2.855zM30.75 3.629c0-0.788-0.639-1.427-1.427-1.427s-1.427 0.639-1.427 1.427v0h2.855zM27.895 11.51c0 0.788 0.639 1.427 1.427 1.427s1.427-0.639 1.427-1.427v0h-2.855zM30.331 4.64c0.248-0.256 0.401-0.606 0.401-0.992 0-0.788-0.639-1.427-1.427-1.427-0.385 0-0.735 0.153-0.992 0.401l0-0 2.017 2.017zM14.991 15.943c-0.28 0.261-0.454 0.632-0.454 1.044 0 0.788 0.639 1.427 1.427 1.427 0.412 0 0.783-0.174 1.044-0.453l0.001-0.001-2.017-2.017zM16 2.202h-5.71v2.855h5.71v-2.855zM10.29 2.202c-4.993 0-9.040 4.048-9.040 9.040v0h2.855c0-3.416 2.769-6.185 6.185-6.185v0-2.855zM1.25 11.242v11.419h2.855v-11.419h-2.855zM1.25 22.661c0 4.993 4.048 9.040 9.040 9.040v0-2.855c-3.416 0-6.185-2.769-6.185-6.185v0h-2.855zM10.29 31.702h11.419v-2.855h-11.419v2.855zM21.71 31.702c4.993 0 9.040-4.047 9.040-9.040v0h-2.855c0 3.416-2.769 6.185-6.185 6.185v0 2.855zM30.75 22.661v-5.71h-2.855v5.71h2.855zM29.323 2.202h-7.78v2.855h7.78v-2.855zM27.895 3.629v7.881h2.855v-7.881h-2.855zM28.314 2.62l-13.323 13.323 2.017 2.017 13.323-13.323-2.017-2.017z"></path>
</symbol>

</defs>
</svg>
